<svg width="13" height="9" viewBox="0 0 13 9" fill="none" xmlns="http://www.w3.org/2000/svg">
  <path d="M6.13815 0.88501C6.24947 0.884902 6.35972 0.910089 6.4626 0.959344C6.56548 1.00859 6.65897 1.08077 6.73774 1.17101L11.9538 7.19101C12.1131 7.37494 12.2025 7.62435 12.2024 7.88437C12.2023 8.14439 12.1127 8.39372 11.9534 8.57751C11.794 8.76131 11.5779 8.86451 11.3526 8.86442C11.1273 8.86433 10.9113 8.76095 10.7521 8.57701L6.13735 3.25101L1.52259 8.57701C1.44375 8.66802 1.35019 8.7402 1.2471 8.78943C1.144 8.83866 1.03351 8.864 0.922008 8.86395C0.810507 8.8639 0.700002 8.83849 0.596958 8.78918C0.493914 8.73987 0.400366 8.66761 0.321586 8.57654C0.242807 8.48547 0.180281 8.37736 0.137665 8.25839C0.0950504 8.13942 0.0730551 8.01192 0.0731525 7.88317C0.0732499 7.75442 0.0952509 7.62693 0.137865 7.50797C0.180479 7.389 0.243037 7.28095 0.321916 7.18988L5.53797 1.16988C5.61674 1.0791 5.71023 1.00711 5.81311 0.958038C5.916 0.908966 6.02625 0.883778 6.13757 0.883889L6.13815 0.88501Z" fill="#189541"/>
</svg>
